<?xml version="1.0" encoding="utf-8"?>
<svg viewBox="0 0 376 44" fill="none" xmlns="http://www.w3.org/2000/svg">
  <rect width="376" height="44" fill="white" transform="matrix(1, 0, 0, 1, 1.4210854715202004e-14, -1.1102230246251565e-16)"/>
  <path d="M334.718 2.00062C228 10.0004 148 10.0004 39.6559 2.00062L16 30.9996C148 38.9999 228 38.9999 360 30.9996L334.718 2.00062Z" fill="white" transform="matrix(1, 0, 0, 1, 1.4210854715202004e-14, -1.1102230246251565e-16)"/>
  <path d="M16 30.9996L39.6559 2.00062C148 10.0004 228 10.0004 334.718 2.00062L360 30.9996M16 30.9996L19.0003 35.9999C148 44 228 44 357 35.9999L360 30.9996M16 30.9996C148 38.9999 228 38.9999 360 30.9996" stroke="#101010" stroke-opacity="0.22" transform="matrix(1, 0, 0, 1, 1.4210854715202004e-14, -1.1102230246251565e-16)"/>
  <path d="M332 5.49907C229 13.0005 145.5 13.0005 42.5 5.5009L23 28.5009C143 36.5005 232 36.501 351.923 28.4991L332 5.49907Z" fill="#E0F6FA" transform="matrix(1, 0, 0, 1, 1.4210854715202004e-14, -1.1102230246251565e-16)"/>
  <text style="fill: rgb(51, 51, 51); font-family: Arial, sans-serif; font-size: 28px; font-weight: 700; white-space: pre;" transform="matrix(0.4535510241985321, 0, 0, 0.36879199743270874, 73.53885760216203, 19.045442864975964)" x="135.066" y="22.28">⅄ⱯM SIHꓕ NƎƎꓤƆS</text>
</svg>